<svg xmlns="http://www.w3.org/2000/svg">
    <symbol id="sanshui-svg-happy-1" viewBox="0 0 1024 1024">
      <path d="M0 512a512 512 0 1 0 1024 0A512 512 0 1 0 0 512z" fill="#FBD971"/><path d="M243.81 658.286c0 148.114 120.076 268.19 268.19 268.19S780.19 806.4 780.19 658.286H243.81z" fill="#C03A2B"/><path d="M146.28600000000003 365.714a146.286 146.286 0 1 0 292.571 0 146.286 146.286 0 1 0-292.571 0zM585.143 365.714a146.286 146.286 0 1 0 292.571 0 146.286 146.286 0 1 0-292.571 0zM243.81 658.286c0 51.663 70.826 95.72 170.666 113.469v-113.47H243.81zm219.428 0v119.783c15.823 1.341 32.085 2.121 48.762 2.121s32.939-.78 48.762-2.12V658.285h-97.524zm316.952 0H609.524v113.469c99.84-17.75 170.666-61.806 170.666-113.47z" fill="#FFF"/><path d="M414.476 658.286v113.469c15.604 2.78 31.89 4.925 48.762 6.339V658.286h-48.762zm146.286 0v119.783c16.872-1.414 33.158-3.56 48.762-6.339V658.286h-48.762z" fill="#ECF0F1"/><path d="M158.476 329.143a85.333 85.333 0 1 0 170.667 0 85.333 85.333 0 1 0-170.667 0zM597.3330000000001 329.143a85.333 85.333 0 1 0 170.667 0 85.333 85.333 0 1 0-170.667 0z" fill="#AF8066"/>
    </symbol>
    <symbol id="sanshui-svg-happy-2" viewBox="0 0 1024 1024">
      <path d="M958.638 428.38C920.728 213.93 737.324 57.999 512 57.999S103.271 213.928 65.362 428.38C29.13 442.782 0 485.07 0 526.423c0 43.095 27.975 79.284 66.625 92.422C113.511 821.705 294.912 973.06 512 973.06c217.11 0 398.489-151.377 445.375-354.216v.021c38.65-13.16 66.625-49.348 66.625-92.443 0-41.352-29.13-83.641-65.362-98.042z" fill="#FFD581"/><path d="M491.564 885.934c-32.115 0-64.643-6.1-95.755-19.064a21.787 21.787 0 1 1 16.776-40.219c102.487 42.638 223.646-4.118 264.519-102.225a21.787 21.787 0 0 1 40.219 16.776c-37.474 89.894-129.612 144.732-225.76 144.732z" fill="#CB8252"/><path d="M326.80899999999997 602.678a43.574 43.574 0 1 0 87.148 0 43.574 43.574 0 1 0-87.148 0zM610.043 602.678a43.574 43.574 0 1 0 87.148 0 43.574 43.574 0 1 0-87.148 0z" fill="#B27821"/><path d="M958.638 428.38v.022C920.728 213.972 733.881 50.94 508.558 50.94S103.27 213.929 65.362 428.38c0 0 368.335 94.338 615.315-102.967 12.092-9.673 29.674-7.408 38.302 5.447 44.642 66.495 126.976 147.194 239.66 97.52z" fill="#9D6019"/>
    </symbol>
    <symbol id="sanshui-svg-happy-3" viewBox="0 0 1024 1024">
      <path d="M0 512a512 512 0 1 0 1024 0A512 512 0 1 0 0 512z" fill="#FBD971"/><path d="M701.61 726.016c-12.482 0-23.088-9.533-24.258-22.162l-17.238-189.635a24.454 24.454 0 0 1 26.502-26.502l189.635 17.237a24.381 24.381 0 0 1 22.065 26.502 24.235 24.235 0 0 1-26.502 22.065l-160.5-14.604 14.604 160.5a24.381 24.381 0 0 1-24.307 26.599zM529.238 381.221a22.504 22.504 0 0 1-2.218-.098l-189.635-17.237a24.381 24.381 0 1 1 4.437-48.567l160.5 14.604-14.604-160.5a24.381 24.381 0 0 1 22.064-26.502 24.259 24.259 0 0 1 26.502 22.065l17.238 189.635a24.454 24.454 0 0 1-24.284 26.6z" fill="#F29C1F"/><path d="M596.968 824.759l-379.27-379.27c-104.741 104.74-104.741 274.554 0 379.27s274.553 104.74 379.27 0z" fill="#FFF"/><path d="M493.544 859.258l-34.475-34.475 68.95-68.973a24.381 24.381 0 1 0-34.475-34.475l-68.95 68.95-34.499-34.475 68.95-68.95a24.381 24.381 0 1 0-34.475-34.474l-68.95 68.949-34.474-34.475 68.95-68.974a24.381 24.381 0 1 0-34.475-34.474l-68.95 68.95-34.474-34.476 68.949-68.949a24.381 24.381 0 1 0-34.475-34.475l-68.95 68.95-34.474-34.475a24.381 24.381 0 1 0-34.474 34.475l34.474 34.474-51.712 51.712a24.381 24.381 0 1 0 34.475 34.475l51.712-51.712 34.475 34.475-68.974 68.974a24.381 24.381 0 1 0 34.475 34.474l68.949-68.95 34.499 34.476-68.95 68.949a24.381 24.381 0 1 0 34.475 34.475l68.95-68.95 34.474 34.475-51.712 51.712a24.381 24.381 0 1 0 34.475 34.475l51.712-51.712 34.475 34.474a24.381 24.381 0 0 0 34.499-34.45z" fill="#ECF0F1"/><path d="M200.46 842.02c-114.078-114.078-114.078-299.69 0-413.769a24.381 24.381 0 0 1 34.475 0l379.27 379.27a24.381 24.381 0 0 1 0 34.475c-114.054 114.079-299.666 114.103-413.745.025zm18.09-361.179c-78.31 95.671-72.874 237.446 16.385 326.705 89.259 89.259 231.034 94.696 326.705 16.384L218.55 480.84z" fill="#F0C419"/>
    </symbol>
    <symbol id="sanshui-svg-happy-4" viewBox="0 0 1024 1024">
      <path d="M609.516 861.051a286.765 286.765 0 0 0 94.865-62.731c25.966-25.99 49.713-54.198 64.17-88.526L899.158 840.4c.976.975 1.634 2.146 2.585 3.17a509.726 509.726 0 0 0 122.244-331.577C1023.987 229.227 794.76 0 511.994 0S0 229.227 0 511.994s229.227 511.993 511.994 511.993c76.262 0 148.38-17.14 213.428-47.03L609.516 861.051z" fill="#FBD971"/><path d="M390.09 414.471a24.38 24.38 0 0 1-24.38-24.38c0-40.326-32.817-73.143-73.142-73.143s-73.142 32.817-73.142 73.142a24.38 24.38 0 1 1-48.761 0c0-67.217 54.685-121.903 121.903-121.903S414.47 322.873 414.47 390.09a24.38 24.38 0 0 1-24.38 24.381zm438.852 0a24.38 24.38 0 0 1-24.38-24.38c0-40.326-32.817-73.143-73.142-73.143s-73.142 32.817-73.142 73.142a24.38 24.38 0 1 1-48.762 0c0-67.217 54.686-121.903 121.904-121.903s121.903 54.686 121.903 121.903a24.38 24.38 0 0 1-24.38 24.381z" fill="#F29C1F"/><path d="M704.381 798.32a286.156 286.156 0 0 1-94.865 62.731L744 995.535a97.79 97.79 0 0 0 137.921 0l17.237-17.237a97.79 97.79 0 0 0 0-137.921L768.551 709.769c-14.457 34.353-38.204 62.586-64.17 88.551z" fill="#FB7B76"/><path d="M812.973 916.493a24.308 24.308 0 0 1-17.237-7.143l-2.828-2.804c-44.154-44.202-72.704-70.265-84.991-77.628a23.357 23.357 0 0 1-18.115-7.12 24.356 24.356 0 0 1 0-34.474c22.235-22.26 52.735 4.876 77.213 26.697 21.406 19.041 44.86 42.52 60.391 58.05l2.804 2.804a24.356 24.356 0 0 1-17.237 41.618z" fill="#E64C3C"/><path d="M511.994 902.084c-161.327 0-292.568-131.241-292.568-292.568a24.38 24.38 0 1 1 48.761 0c0 134.435 109.372 243.807 243.807 243.807S755.8 743.95 755.8 609.516a24.38 24.38 0 1 1 48.761 0c0 161.327-131.24 292.568-292.567 292.568z" fill="#F0C419"/>
    </symbol>
    <symbol id="sanshui-svg-happy-5" viewBox="0 0 1024 1024">
      <path d="M0 512a512 512 0 1 0 1024 0A512 512 0 1 0 0 512z" fill="#FBD971"/><path d="M121.90500000000003 365.714a170.667 170.667 0 1 0 341.333 0 170.667 170.667 0 1 0-341.333 0zM560.762 365.714a170.667 170.667 0 1 0 341.333 0 170.667 170.667 0 1 0-341.333 0zM780.19 658.286H243.81c0 148.114 120.076 268.19 268.19 268.19S780.19 806.4 780.19 658.286z" fill="#FFF"/><path d="M731.429 755.81h-48.762v-97.524a24.381 24.381 0 1 0-48.762 0v97.524h-48.762v-97.524a24.381 24.381 0 1 0-48.762 0v97.524h-48.762v-97.524a24.381 24.381 0 1 0-48.762 0v97.524h-48.762v-97.524a24.381 24.381 0 1 0-48.762 0v97.524h-48.762a24.381 24.381 0 1 0 0 48.761h48.762v73.143a24.381 24.381 0 1 0 48.762 0v-73.143h48.762v97.524a24.381 24.381 0 1 0 48.762 0v-97.524h48.762v97.524a24.381 24.381 0 1 0 48.762 0v-97.524h48.762v73.143a24.381 24.381 0 1 0 48.762 0v-73.143h48.762a24.381 24.381 0 1 0 0-48.761z" fill="#ECF0F0"/><path d="M512 950.857c-161.329 0-292.571-131.243-292.571-292.571a24.381 24.381 0 0 1 24.38-24.381H780.19a24.381 24.381 0 0 1 24.381 24.38c0 161.33-131.242 292.572-292.571 292.572zm-242.59-268.19C281.673 805.693 385.78 902.095 512 902.095s230.327-96.402 242.59-219.428H269.41z" fill="#F0C419"/><path d="M170.66700000000003 365.714a121.905 121.905 0 1 0 243.81 0 121.905 121.905 0 1 0-243.81 0zM609.524 365.714a121.905 121.905 0 1 0 243.81 0 121.905 121.905 0 1 0-243.81 0z" fill="#AF8066"/>
    </symbol>
    <symbol id="sanshui-svg-happy-6" viewBox="0 0 1024 1024">
      <path d="M731.258 957.61L596.773 823.126A288.744 288.744 0 0 0 656.7 789.65l73.313-73.313a220.111 220.111 0 0 0 25.82-44.471l130.609 130.609c9.63 9.63 16.774 20.821 21.504 32.792C980.066 747.032 1024 634.856 1024 512 1024 229.23 794.77 0 512 0S0 229.23 0 512s229.23 512 512 512c83.602 0 162.23-20.48 231.912-56.076a95.5 95.5 0 0 1-12.654-10.313z" fill="#FBD971"/><path d="M243.80999999999997 329.143a85.333 85.333 0 1 0 170.666 0 85.333 85.333 0 1 0-170.666 0zM633.9050000000001 329.143a85.333 85.333 0 1 0 170.666 0 85.333 85.333 0 1 0-170.666 0z" fill="#AF8066"/><path d="M691.639 760.393a286.16 286.16 0 0 1-94.866 62.732l134.485 134.486a97.792 97.792 0 0 0 137.923 0l17.237-17.238a97.792 97.792 0 0 0 0-137.923L755.81 671.842c-14.483 34.352-38.205 62.561-64.171 88.551z" fill="#FB7B76"/><path d="M747.398 777.314C731.088 765 716.264 754.566 703 748.398c-3.779 4.023-7.485 8.094-11.386 11.995-9.045 9.045-18.92 17.213-29.11 24.966 5.388 5.267 12.629 7.583 19.553 6.876 17.969 8.314 72.972 51.273 100.913 79.189a24.308 24.308 0 0 0 34.475 0 24.357 24.357 0 0 0 0-34.475c-16.238-16.262-45.056-40.789-70.047-59.635z" fill="#E64C3C"/><path d="M512 853.333c-161.329 0-292.571-131.242-292.571-292.571a24.381 24.381 0 0 1 48.761 0c0 134.436 109.373 243.81 243.81 243.81s243.81-109.374 243.81-243.81a24.381 24.381 0 0 1 48.761 0c0 161.329-131.242 292.571-292.571 292.571z" fill="#F0C419"/>
    </symbol>
    <symbol id="sanshui-svg-happy-7" viewBox="0 0 1024 1024">
      <path d="M512 0C260.042 0 53.895 206.147 53.895 458.105v440.14c0 39.523 32.337 71.86 71.86 71.86h121.748C322.237 1006.412 413.444 1024 512 1024s189.763-17.588 264.497-53.895h121.749c39.522 0 71.86-32.337 71.86-71.86v-440.14C970.105 206.147 763.957 0 512 0z" fill="#6E5847"/><path d="M916.21 538.947c-199.392 0-368.334-142.964-426.972-340.758-242.436 11.875-435.343 212.166-435.343 457.53C53.895 908.72 259 1024 512 1024s458.105-115.28 458.105-368.28c0-41.05-5.479-80.825-15.611-118.677-12.63 1.168-25.385 1.904-38.283 1.904z" fill="#FDC794"/><path d="M323.368 718.596c0 109.137 88.478 197.615 197.614 197.615s197.614-88.478 197.614-197.615H323.368z" fill="#FFF"/><path d="M682.667 790.456h-71.86v-71.86a17.965 17.965 0 1 0-35.93 0v71.86h-107.79v-71.86a17.965 17.965 0 1 0-35.93 0v71.86h-71.859a17.965 17.965 0 1 0 0 35.93h71.86v71.86a17.965 17.965 0 1 0 35.93 0v-71.86h107.79v71.86a17.965 17.965 0 1 0 35.929 0v-71.86h71.86a17.965 17.965 0 1 0 0-35.93z" fill="#ECF0F0"/><path d="M520.982 934.175c-118.873 0-215.578-96.705-215.578-215.579a17.965 17.965 0 0 1 17.964-17.964h395.228a17.965 17.965 0 0 1 17.965 17.964c0 118.874-96.705 215.58-215.579 215.58zm-178.75-197.614c9.036 90.651 85.764 161.685 178.75 161.685s169.715-71.034 178.751-161.685H342.232zm70.961-197.614a17.911 17.911 0 0 1-12.701-5.263 89.932 89.932 0 0 0-127.03 0 17.947 17.947 0 1 1-25.402-25.403 125.898 125.898 0 0 1 177.834 0 17.947 17.947 0 0 1-12.701 30.666z" fill="#F9A671"/>
    </symbol>
    <symbol id="sanshui-svg-happy-8" viewBox="0 0 1024 1024">
      <path d="M0 512a512 512 0 1 0 1024 0A512 512 0 1 0 0 512z" fill="#FBD971"/><path d="M243.80999999999997 329.143a85.333 85.333 0 1 0 170.666 0 85.333 85.333 0 1 0-170.666 0zM633.9050000000001 329.143a85.333 85.333 0 1 0 170.666 0 85.333 85.333 0 1 0-170.666 0z" fill="#AF8066"/><path d="M780.19 585.143c0 148.114-120.076 268.19-268.19 268.19s-268.19-120.076-268.19-268.19h536.38z" fill="#C03A2B"/>
    </symbol>
    <symbol id="sanshui-svg-happy-9" viewBox="0 0 1024 1024">
      <path d="M790.456 970.105c-1.15 1.132 107.79 0 107.79 0 39.522 0 71.86-32.337 71.86-71.86v-440.14C970.105 206.147 763.957 0 512 0S53.895 206.147 53.895 458.105v440.14c0 39.523 32.337 71.86 71.86 71.86h121.748C322.237 1006.412 413.444 1024 512 1024c81.183 0 157.21-12.144 223.304-36.648" fill="#6E5847"/><path d="M954.494 537.043c-12.63 1.168-25.385 1.904-38.283 1.904-199.393 0-368.335-142.964-426.973-340.758-242.436 11.875-435.343 212.166-435.343 457.53C53.895 908.72 259 1024 512 1024c81.363 0 157.696-12 223.933-36.577a71.123 71.123 0 0 1-43.978-20.3l-99.113-99.112a211.088 211.088 0 0 0 62.518-39.541s44.014-46.601 54.685-71.914l96.238 96.238c27.774 27.774 29.624 71.357 2.138 99.346 99.903-59.356 161.684-155.666 161.684-296.42 0-41.05-5.479-80.825-15.611-118.677z" fill="#FDC794"/><path d="M662.744 821.787a210.854 210.854 0 0 1-69.902 46.224l99.095 99.094a72.057 72.057 0 0 0 101.627 0l12.701-12.701a72.057 72.057 0 0 0 0-101.628l-96.238-96.238c-10.653 25.33-28.15 46.116-47.283 65.249z" fill="#FB7B76"/><path d="M742.76 908.863a17.911 17.911 0 0 1-12.702-5.264l-2.084-2.066c-32.534-32.57-53.571-51.775-62.626-57.2-4.958.485-9.665-1.581-13.347-5.246a17.947 17.947 0 0 1 0-25.402c16.384-16.402 38.84 3.593 56.894 19.671 15.774 14.03 33.056 31.331 44.5 42.775l2.065 2.066a17.947 17.947 0 0 1-12.7 30.666zm-65.41-69.722zm.053-.054l-.036.036.036-.036z" fill="#E64C3C"/><path d="M520.982 898.246c-118.873 0-215.578-96.706-215.578-215.58a17.965 17.965 0 1 1 35.93 0c0 99.06 80.59 179.65 179.648 179.65s179.65-80.59 179.65-179.65a17.965 17.965 0 1 1 35.93 0c0 118.874-96.706 215.58-215.58 215.58zM413.193 538.947a17.911 17.911 0 0 1-12.701-5.263 89.932 89.932 0 0 0-127.03 0 17.947 17.947 0 1 1-25.402-25.403 125.898 125.898 0 0 1 177.834 0 17.947 17.947 0 0 1-12.701 30.666z" fill="#F9A671"/>
    </symbol></svg>