<?xml version="1.0" standalone="no"?><!DOCTYPE svg PUBLIC "-//W3C//DTD SVG 1.1//EN" "http://www.w3.org/Graphics/SVG/1.1/DTD/svg11.dtd"><svg t="1518055366854" class="icon" style="" viewBox="0 0 1024 1024" version="1.1" xmlns="http://www.w3.org/2000/svg" p-id="3265" xmlns:xlink="http://www.w3.org/1999/xlink" width="200" height="200"><defs><style type="text/css"></style></defs><path d="M512 0C260.042105 0 53.894737 206.147368 53.894737 458.105263V898.245614c0 39.522807 32.336842 71.859649 71.859649 71.859649h121.74821c74.734035 36.307088 165.941895 53.894737 264.497404 53.894737s189.763368-17.587649 264.497404-53.894737H898.245614c39.522807 0 71.859649-32.336842 71.859649-71.859649V458.105263C970.105263 206.147368 763.957895 0 512 0z" fill="#6E5847" p-id="3266"></path><path d="M916.210526 538.947368c-199.392561 0-368.334596-142.964772-426.97207-340.758456C246.801965 210.063719 53.894737 410.354526 53.894737 655.719298 53.894737 908.719158 259.00014 1024 512 1024S970.105263 908.719158 970.105263 655.719298c0-41.049825-5.479298-80.82414-15.611509-118.67621-12.629333 1.167719-25.384421 1.904281-38.283228 1.90428z" fill="#FDC794" p-id="3267"></path><path d="M323.368421 718.596491c0 109.136842 88.477193 197.614035 197.614035 197.614035s197.614035-88.477193 197.614035-197.614035H323.368421z" fill="#FFFFFF" p-id="3268"></path><path d="M682.666667 790.45614h-71.859649v-71.859649a17.964912 17.964912 0 1 0-35.929825 0v71.859649h-107.789474v-71.859649a17.964912 17.964912 0 1 0-35.929824 0v71.859649h-71.859649a17.964912 17.964912 0 1 0 0 35.929825h71.859649v71.859649a17.964912 17.964912 0 1 0 35.929824 0v-71.859649h107.789474v71.859649a17.964912 17.964912 0 1 0 35.929825 0v-71.859649h71.859649a17.964912 17.964912 0 1 0 0-35.929825z" fill="#ECF0F0" p-id="3269"></path><path d="M520.982456 934.175439c-118.873825 0-215.578947-96.705123-215.578947-215.578948a17.964912 17.964912 0 0 1 17.964912-17.964912h395.22807a17.964912 17.964912 0 0 1 17.964913 17.964912c0 118.873825-96.705123 215.578947-215.578948 215.578948z m-178.750877-197.614035c9.036351 90.650947 85.764491 161.684211 178.750877 161.68421s169.714526-71.033263 178.750877-161.68421h-357.501754zM413.192982 538.947368a17.911018 17.911018 0 0 1-12.701193-5.263719 89.932351 89.932351 0 0 0-127.029894 0 17.946947 17.946947 0 1 1-25.402386-25.402386 125.898105 125.898105 0 0 1 177.834666 0A17.946947 17.946947 0 0 1 413.192982 538.947368z" fill="#F9A671" p-id="3270"></path></svg>