<?xml version="1.0" standalone="no"?><!DOCTYPE svg PUBLIC "-//W3C//DTD SVG 1.1//EN" "http://www.w3.org/Graphics/SVG/1.1/DTD/svg11.dtd"><svg t="1518055330249" class="icon" style="" viewBox="0 0 1024 1024" version="1.1" xmlns="http://www.w3.org/2000/svg" p-id="2644" xmlns:xlink="http://www.w3.org/1999/xlink" width="200" height="200"><defs><style type="text/css"></style></defs><path d="M512 512m-512 0a512 512 0 1 0 1024 0 512 512 0 1 0-1024 0Z" fill="#FBD971" p-id="2645"></path><path d="M701.610667 726.016c-12.483048 0-23.088762-9.532952-24.259048-22.162286l-17.237333-189.635047a24.454095 24.454095 0 0 1 26.502095-26.502096l189.635048 17.237334a24.380952 24.380952 0 0 1 22.064761 26.502095 24.234667 24.234667 0 0 1-26.502095 22.064762l-160.499809-14.604191 14.60419 160.49981a24.380952 24.380952 0 0 1-24.307809 26.599619zM529.237333 381.220571a22.503619 22.503619 0 0 1-2.218666-0.097523l-189.635048-17.237334a24.380952 24.380952 0 1 1 4.437333-48.566857l160.49981 14.604191-14.604191-160.49981a24.380952 24.380952 0 0 1 22.064762-26.502095 24.259048 24.259048 0 0 1 26.502096 22.064762l17.237333 189.635047a24.454095 24.454095 0 0 1-24.283429 26.599619z" fill="#F29C1F" p-id="2646"></path><path d="M596.967619 824.758857L217.697524 445.488762c-104.740571 104.740571-104.740571 274.553905 0 379.270095s274.553905 104.740571 379.270095 0z" fill="#FFFFFF" p-id="2647"></path><path d="M493.543619 859.257905l-34.474667-34.474667L528.018286 755.809524a24.380952 24.380952 0 1 0-34.474667-34.474667l-68.949333 68.949333L390.095238 755.809524l68.949333-68.949334a24.380952 24.380952 0 1 0-34.474666-34.474666l-68.949334 68.949333-34.474666-34.474667L390.095238 617.886476a24.380952 24.380952 0 1 0-34.474667-34.474666l-68.949333 68.949333-34.474667-34.474667 68.949334-68.949333a24.380952 24.380952 0 1 0-34.474667-34.474667L217.721905 583.41181l-34.474667-34.474667a24.380952 24.380952 0 1 0-34.474667 34.474667l34.474667 34.474666-51.712 51.712a24.380952 24.380952 0 1 0 34.474667 34.474667l51.712-51.712 34.474666 34.474667L183.222857 755.809524a24.380952 24.380952 0 1 0 34.474667 34.474666l68.949333-68.949333L321.145905 755.809524l-68.949334 68.949333a24.380952 24.380952 0 1 0 34.474667 34.474667l68.949333-68.949334L390.095238 824.758857l-51.712 51.712a24.380952 24.380952 0 1 0 34.474667 34.474667l51.712-51.712 34.474666 34.474666a24.380952 24.380952 0 0 0 34.499048-34.450285z" fill="#ECF0F1" p-id="2648"></path><path d="M200.46019 842.020571c-114.078476-114.078476-114.078476-299.690667 0-413.769142a24.380952 24.380952 0 0 1 34.474667 0l379.270095 379.270095a24.380952 24.380952 0 0 1 0 34.474666c-114.054095 114.078476-299.666286 114.102857-413.744762 0.024381z m18.090667-361.179428c-78.311619 95.670857-72.874667 237.446095 16.384 326.704762 89.258667 89.258667 231.033905 94.695619 326.704762 16.384L218.550857 480.841143z" fill="#F0C419" p-id="2649"></path></svg>