<?xml version="1.0" standalone="no"?><!DOCTYPE svg PUBLIC "-//W3C//DTD SVG 1.1//EN" "http://www.w3.org/Graphics/SVG/1.1/DTD/svg11.dtd"><svg t="1518055339644" class="icon" style="" viewBox="0 0 1024 1024" version="1.1" xmlns="http://www.w3.org/2000/svg" p-id="2768" xmlns:xlink="http://www.w3.org/1999/xlink" width="200" height="200"><defs><style type="text/css"></style></defs><path d="M609.516263 861.051435a286.765211 286.765211 0 0 0 94.865111-62.731414c25.965393-25.989773 49.712146-54.198186 64.169873-88.526142l130.607144 130.607145c0.975226 0.975226 1.633504 2.145497 2.584349 3.169484A509.726261 509.726261 0 0 0 1023.987322 511.993661C1023.987322 229.226876 794.760446 0 511.993661 0S0 229.226876 0 511.993661s229.226876 511.993661 511.993661 511.993661c76.262675 0 148.380639-17.139597 213.428215-47.030275L609.516263 861.051435z" fill="#FBD971" p-id="2769"></path><path d="M390.090408 414.471059a24.380651 24.380651 0 0 1-24.38065-24.380651c0-40.325596-32.816356-73.141952-73.141952-73.141951s-73.141952 32.816356-73.141951 73.141951a24.380651 24.380651 0 1 1-48.761301 0c0-67.217453 54.685799-121.903253 121.903252-121.903252s121.903253 54.685799 121.903253 121.903252a24.380651 24.380651 0 0 1-24.380651 24.380651zM828.942118 414.471059a24.380651 24.380651 0 0 1-24.380651-24.380651c0-40.325596-32.816356-73.141952-73.141951-73.141951s-73.141952 32.816356-73.141952 73.141951a24.380651 24.380651 0 1 1-48.761301 0c0-67.217453 54.685799-121.903253 121.903253-121.903252s121.903253 54.685799 121.903252 121.903252a24.380651 24.380651 0 0 1-24.38065 24.380651z" fill="#F29C1F" p-id="2770"></path><path d="M704.381374 798.320021A286.155695 286.155695 0 0 1 609.516263 861.051435l134.483668 134.483668a97.790789 97.790789 0 0 0 137.92134 0l17.23712-17.23712a97.790789 97.790789 0 0 0 0-137.92134l-130.607144-130.607145c-14.457726 34.352337-38.204479 62.58513-64.169873 88.550523z" fill="#FB7B76" p-id="2771"></path><path d="M812.972792 916.493034a24.307509 24.307509 0 0 1-17.23712-7.143531l-2.828156-2.803775c-44.153358-44.202119-72.7031-70.265035-84.990947-77.627991a23.356663 23.356663 0 0 1-18.114824-7.11915 24.35627 24.35627 0 0 1 0-34.47424c22.235153-22.259534 52.735347 4.87613 77.213521 26.696813 21.406211 19.041288 44.860397 42.519855 60.390871 58.050329l2.803775 2.803774a24.35627 24.35627 0 0 1-17.23712 41.617771z" fill="#E64C3C" p-id="2772"></path><path d="M511.993661 902.084069c-161.326765 0-292.567806-131.241042-292.567806-292.567806a24.380651 24.380651 0 1 1 48.761301 0c0 134.434907 109.371598 243.806505 243.806505 243.806505s243.806505-109.371598 243.806505-243.806505a24.380651 24.380651 0 1 1 48.761301 0c0 161.326765-131.241042 292.567806-292.567806 292.567806z" fill="#F0C419" p-id="2773"></path></svg>