<?xml version="1.0" standalone="no"?><!DOCTYPE svg PUBLIC "-//W3C//DTD SVG 1.1//EN" "http://www.w3.org/Graphics/SVG/1.1/DTD/svg11.dtd"><svg t="1518055303570" class="icon" style="" viewBox="0 0 1024 1024" version="1.1" xmlns="http://www.w3.org/2000/svg" p-id="2142" xmlns:xlink="http://www.w3.org/1999/xlink" width="200" height="200"><defs><style type="text/css"></style></defs><path d="M731.257905 957.610667l-134.485334-134.485334a288.743619 288.743619 0 0 0 59.928381-33.475047l73.313524-73.313524a220.111238 220.111238 0 0 0 25.819429-44.470857l130.608762 130.608762c9.630476 9.630476 16.774095 20.821333 21.504 32.792381C980.065524 747.032381 1024 634.855619 1024 512 1024 229.229714 794.770286 0 512 0S0 229.229714 0 512s229.229714 512 512 512c83.602286 0 162.230857-20.48 231.911619-56.07619a95.50019 95.50019 0 0 1-12.653714-10.313143z" fill="#FBD971" p-id="2143"></path><path d="M329.142857 329.142857m-85.333333 0a85.333333 85.333333 0 1 0 170.666666 0 85.333333 85.333333 0 1 0-170.666666 0Z" fill="#AF8066" p-id="2144"></path><path d="M719.238095 329.142857m-85.333333 0a85.333333 85.333333 0 1 0 170.666667 0 85.333333 85.333333 0 1 0-170.666667 0Z" fill="#AF8066" p-id="2145"></path><path d="M691.638857 760.393143a286.159238 286.159238 0 0 1-94.866286 62.73219l134.485334 134.485334a97.792 97.792 0 0 0 137.923047 0l17.237334-17.237334a97.792 97.792 0 0 0 0-137.923047L755.809524 671.841524c-14.482286 34.352762-38.204952 62.561524-64.170667 88.551619z" fill="#FB7B76" p-id="2146"></path><path d="M747.398095 777.313524c-16.310857-12.312381-31.134476-22.747429-44.397714-28.91581-3.779048 4.022857-7.484952 8.094476-11.385905 11.995429-9.045333 9.045333-18.919619 17.212952-29.110857 24.966095 5.38819 5.266286 12.629333 7.582476 19.553524 6.875429 17.968762 8.313905 72.97219 51.273143 100.912762 79.189333a24.30781 24.30781 0 0 0 34.474666 0 24.356571 24.356571 0 0 0 0-34.474667c-16.237714-16.262095-45.056-40.789333-70.046476-59.635809z" fill="#E64C3C" p-id="2147"></path><path d="M512 853.333333c-161.328762 0-292.571429-131.242667-292.571429-292.571428a24.380952 24.380952 0 0 1 48.761905 0c0 134.436571 109.372952 243.809524 243.809524 243.809524s243.809524-109.372952 243.809524-243.809524a24.380952 24.380952 0 0 1 48.761905 0c0 161.328762-131.242667 292.571429-292.571429 292.571428z" fill="#F0C419" p-id="2148"></path></svg>