<?xml version="1.0" standalone="no"?><!DOCTYPE svg PUBLIC "-//W3C//DTD SVG 1.1//EN" "http://www.w3.org/Graphics/SVG/1.1/DTD/svg11.dtd"><svg t="1518055355817" class="icon" style="" viewBox="0 0 1024 1024" version="1.1" xmlns="http://www.w3.org/2000/svg" p-id="3017" xmlns:xlink="http://www.w3.org/1999/xlink" width="200" height="200"><defs><style type="text/css"></style></defs><path d="M958.638298 428.380596c-37.909787-214.451745-221.314723-370.382979-446.638298-370.382979S103.271489 213.928851 65.361702 428.380596c-36.23217 14.401362-65.361702 56.690383-65.361702 98.042553 0 43.095149 27.974809 79.283745 66.625362 92.421447C113.511489 821.705532 294.912 973.061447 512 973.061447c217.109787 0 398.488511-151.377702 445.374638-354.216851v0.021787C996.025191 605.706894 1024 569.518298 1024 526.423149c0-41.35217-29.129532-83.641191-65.361702-98.042553z" fill="#FFD581" p-id="3018"></path><path d="M491.563574 885.934298c-32.114383 0-64.642723-6.100426-95.754893-19.06383a21.787234 21.787234 0 1 1 16.77617-40.219234c102.487149 42.637617 223.645957-4.117787 264.518809-102.225702a21.787234 21.787234 0 0 1 40.219234 16.77617c-37.474043 89.894128-129.612255 144.732596-225.75932 144.732596z" fill="#CB8252" p-id="3019"></path><path d="M370.382979 602.678468m-43.574468 0a43.574468 43.574468 0 1 0 87.148936 0 43.574468 43.574468 0 1 0-87.148936 0Z" fill="#B27821" p-id="3020"></path><path d="M653.617021 602.678468m-43.574468 0a43.574468 43.574468 0 1 0 87.148936 0 43.574468 43.574468 0 1 0-87.148936 0Z" fill="#B27821" p-id="3021"></path><path d="M958.638298 428.380596v0.021787C920.728511 213.972426 733.881191 50.938553 508.557617 50.938553S103.271489 213.928851 65.361702 428.380596c0 0 368.334979 94.338723 615.315064-102.966468 12.091915-9.673532 29.674213-7.40766 38.301957 5.446808 44.642043 66.494638 126.976 147.194553 239.659575 97.51966z" fill="#9D6019" p-id="3022"></path></svg>