<?xml version="1.0" standalone="no"?><!DOCTYPE svg PUBLIC "-//W3C//DTD SVG 1.1//EN" "http://www.w3.org/Graphics/SVG/1.1/DTD/svg11.dtd"><svg t="1518055360827" class="icon" style="" viewBox="0 0 1024 1024" version="1.1" xmlns="http://www.w3.org/2000/svg" p-id="3141" xmlns:xlink="http://www.w3.org/1999/xlink" width="200" height="200"><defs><style type="text/css"></style></defs><path d="M790.45614 970.105263c-1.149754 1.131789 107.789474 0 107.789474 0 39.522807 0 71.859649-32.336842 71.859649-71.859649V458.105263C970.105263 206.147368 763.957895 0 512 0S53.894737 206.147368 53.894737 458.105263V898.245614c0 39.522807 32.336842 71.859649 71.859649 71.859649h121.74821c74.734035 36.307088 165.941895 53.894737 264.497404 53.894737 81.183439 0 157.210947-12.144281 223.30386-36.648421" fill="#6E5847" p-id="3142"></path><path d="M954.493754 537.043088c-12.629333 1.167719-25.384421 1.904281-38.283228 1.90428-199.392561 0-368.334596-142.964772-426.97207-340.758456C246.801965 210.063719 53.894737 410.354526 53.894737 655.719298 53.894737 908.719158 259.00014 1024 512 1024c81.363088 0 157.696-12.000561 223.932632-36.576561a71.123088 71.123088 0 0 1-43.978106-20.300351L592.842105 868.010667a211.087719 211.087719 0 0 0 62.517895-39.540772s44.014035-46.600982 54.685193-71.913544l96.238035 96.238035c27.773754 27.773754 29.62414 71.356632 2.137825 99.345965 99.902877-59.35607 161.684211-155.665965 161.68421-296.421053 0-41.049825-5.479298-80.82414-15.611509-118.67621z" fill="#FDC794" p-id="3143"></path><path d="M662.743579 821.786947A210.854175 210.854175 0 0 1 592.842105 868.010667l99.094456 99.094456a72.057263 72.057263 0 0 0 101.627509 0l12.701193-12.701193a72.057263 72.057263 0 0 0 0-101.627509l-96.238035-96.238035c-10.653193 25.330526-28.151018 46.11593-47.283649 65.248561z" fill="#FB7B76" p-id="3144"></path><path d="M742.759298 908.862877a17.911018 17.911018 0 0 1-12.701193-5.263719l-2.08393-2.065965c-32.534456-32.570386-53.571368-51.774877-62.625684-57.200281-4.958316 0.485053-9.665123-1.580912-13.34793-5.245754a17.946947 17.946947 0 0 1 0-25.402386c16.384-16.401965 38.84014 3.592982 56.894878 19.671579 15.773193 14.030596 33.055439 31.330807 44.499087 42.774456l2.065965 2.065965a17.946947 17.946947 0 0 1-12.701193 30.666105z m-65.410245-69.721824z m0.053894-0.053895l-0.035929 0.03593 0.035929-0.03593z" fill="#E64C3C" p-id="3145"></path><path d="M520.982456 898.245614c-118.873825 0-215.578947-96.705123-215.578947-215.578947a17.964912 17.964912 0 1 1 35.929824 0c0 99.058526 80.590596 179.649123 179.649123 179.649122s179.649123-80.590596 179.649123-179.649122a17.964912 17.964912 0 1 1 35.929825 0c0 118.873825-96.705123 215.578947-215.578948 215.578947zM413.192982 538.947368a17.911018 17.911018 0 0 1-12.701193-5.263719 89.932351 89.932351 0 0 0-127.029894 0 17.946947 17.946947 0 1 1-25.402386-25.402386 125.898105 125.898105 0 0 1 177.834666 0A17.946947 17.946947 0 0 1 413.192982 538.947368z" fill="#F9A671" p-id="3146"></path></svg>