<?xml version="1.0" standalone="no"?><!DOCTYPE svg PUBLIC "-//W3C//DTD SVG 1.1//EN" "http://www.w3.org/Graphics/SVG/1.1/DTD/svg11.dtd"><svg t="1518055319185" class="icon" style="" viewBox="0 0 1024 1024" version="1.1" xmlns="http://www.w3.org/2000/svg" p-id="2390" xmlns:xlink="http://www.w3.org/1999/xlink" width="200" height="200"><defs><style type="text/css"></style></defs><path d="M512 512m-512 0a512 512 0 1 0 1024 0 512 512 0 1 0-1024 0Z" fill="#FBD971" p-id="2391"></path><path d="M243.809524 658.285714c0 148.114286 120.07619 268.190476 268.190476 268.190476s268.190476-120.07619 268.190476-268.190476H243.809524z" fill="#C03A2B" p-id="2392"></path><path d="M292.571429 365.714286m-146.285715 0a146.285714 146.285714 0 1 0 292.571429 0 146.285714 146.285714 0 1 0-292.571429 0Z" fill="#FFFFFF" p-id="2393"></path><path d="M731.428571 365.714286m-146.285714 0a146.285714 146.285714 0 1 0 292.571429 0 146.285714 146.285714 0 1 0-292.571429 0Z" fill="#FFFFFF" p-id="2394"></path><path d="M243.809524 658.285714c0 51.663238 70.826667 95.719619 170.666666 113.468953V658.285714h-170.666666zM463.238095 658.285714v119.783619c15.823238 1.340952 32.085333 2.121143 48.761905 2.121143s32.938667-0.78019 48.761905-2.121143V658.285714h-97.52381zM780.190476 658.285714h-170.666666v113.468953c99.84-17.749333 170.666667-61.805714 170.666666-113.468953z" fill="#FFFFFF" p-id="2395"></path><path d="M414.47619 658.285714v113.468953c15.60381 2.779429 31.890286 4.924952 48.761905 6.339047V658.285714h-48.761905zM560.761905 658.285714v119.783619c16.871619-1.414095 33.158095-3.559619 48.761905-6.339047V658.285714h-48.761905z" fill="#ECF0F1" p-id="2396"></path><path d="M243.809524 329.142857m-85.333334 0a85.333333 85.333333 0 1 0 170.666667 0 85.333333 85.333333 0 1 0-170.666667 0Z" fill="#AF8066" p-id="2397"></path><path d="M682.666667 329.142857m-85.333334 0a85.333333 85.333333 0 1 0 170.666667 0 85.333333 85.333333 0 1 0-170.666667 0Z" fill="#AF8066" p-id="2398"></path></svg>